M48
; DRILL file {KiCad 8.0.5} date 2024-12-03T22:20:37-0600
; FORMAT={-:-/ absolute / metric / decimal}
; #@! TF.CreationDate,2024-12-03T22:20:37-06:00
; #@! TF.GenerationSoftware,Kicad,Pcbnew,8.0.5
; #@! TF.FileFunction,Plated,1,2,PTH
FMAT,2
METRIC
; #@! TA.AperFunction,Plated,PTH,ViaDrill
T1C0.300
; #@! TA.AperFunction,Plated,PTH,ComponentDrill
T2C0.300
; #@! TA.AperFunction,Plated,PTH,ComponentDrill
T3C1.000
%
G90
G05
T1
X57.715Y-72.891
X59.78Y-75.465
X60.28Y-69.465
X62.035Y-89.179
X62.28Y-83.465
X62.635Y-88.633
X63.78Y-67.965
X63.78Y-74.965
X65.828Y-85.388
X65.841Y-79.165
X66.579Y-88.58
X68.78Y-74.965
X69.026Y-70.089
X69.78Y-91.465
X70.28Y-85.465
X71.38Y-79.737
X72.02Y-81.364
T2
X64.53Y-90.335
X64.53Y-92.835
X64.53Y-95.335
X64.53Y-97.835
X67.03Y-90.335
X67.03Y-92.835
X67.03Y-95.335
X67.03Y-97.835
T3
X49.78Y-57.465
X57.38Y-60.965
X57.38Y-63.505
X59.92Y-60.965
X59.92Y-63.505
X62.46Y-60.965
X62.46Y-63.505
X65.0Y-60.965
X65.0Y-63.505
X67.54Y-60.965
X67.54Y-63.505
X70.08Y-60.965
X70.08Y-63.505
X72.62Y-60.965
X72.62Y-63.505
X75.16Y-60.965
X75.16Y-63.505
M30
