M48
; DRILL file {KiCad 8.0.5} date 2024-12-04T12:39:27-0600
; FORMAT={-:-/ absolute / inch / decimal}
; #@! TF.CreationDate,2024-12-04T12:39:27-06:00
; #@! TF.GenerationSoftware,Kicad,Pcbnew,8.0.5
; #@! TF.FileFunction,Plated,1,2,PTH
FMAT,2
INCH
; #@! TA.AperFunction,Plated,PTH,ViaDrill
T1C0.0118
; #@! TA.AperFunction,Plated,PTH,ComponentDrill
T2C0.0118
; #@! TA.AperFunction,Plated,PTH,ComponentDrill
T3C0.0394
%
G90
G05
T1
X2.2723Y-2.8697
X2.3535Y-2.9711
X2.3732Y-2.7348
X2.4423Y-3.511
X2.454Y-3.2857
X2.466Y-3.4895
X2.511Y-2.6758
X2.511Y-2.9514
X2.5504Y-3.3844
X2.5916Y-3.3617
X2.5922Y-3.1167
X2.7079Y-2.9514
X2.7175Y-2.7594
X2.7669Y-3.3648
X2.8026Y-3.5406
X2.8102Y-3.1392
X2.8354Y-3.2033
T2
X2.5406Y-3.5565
X2.5406Y-3.6549
X2.5406Y-3.7533
X2.5406Y-3.8518
X2.639Y-3.5565
X2.639Y-3.6549
X2.639Y-3.7533
X2.639Y-3.8518
T3
X1.9598Y-2.2624
X2.2591Y-2.4002
X2.2591Y-2.5002
X2.3591Y-2.4002
X2.3591Y-2.5002
X2.4591Y-2.4002
X2.4591Y-2.5002
X2.5591Y-2.4002
X2.5591Y-2.5002
X2.6591Y-2.4002
X2.6591Y-2.5002
X2.7591Y-2.4002
X2.7591Y-2.5002
X2.8591Y-2.4002
X2.8591Y-2.5002
X2.9591Y-2.4002
X2.9591Y-2.5002
M30
