%TF.GenerationSoftware,KiCad,Pcbnew,8.0.5*%
%TF.CreationDate,2024-12-04T12:39:28-06:00*%
%TF.ProjectId,KiCad_ETDBR,4b694361-645f-4455-9444-42522e6b6963,rev?*%
%TF.SameCoordinates,Original*%
%TF.FileFunction,Drillmap*%
%TF.FilePolarity,Positive*%
%FSLAX45Y45*%
G04 Gerber Fmt 4.5, Leading zero omitted, Abs format (unit mm)*
G04 Created by KiCad (PCBNEW 8.0.5) date 2024-12-04 12:39:28*
%MOMM*%
%LPD*%
G01*
G04 APERTURE LIST*
%ADD10C,0.200000*%
%ADD11C,0.250000*%
G04 APERTURE END LIST*
D10*
X4828000Y-5596500D02*
X8328000Y-5596500D01*
X8328000Y-10596500D01*
X4828000Y-10596500D01*
X4828000Y-5596500D01*
D11*
X5003000Y-6971500D02*
X5253000Y-7221500D01*
X5253000Y-6971500D02*
X5003000Y-7221500D01*
X5003000Y-10171500D02*
X5253000Y-10421500D01*
X5253000Y-10171500D02*
X5003000Y-10421500D01*
X7903000Y-6971500D02*
X8153000Y-7221500D01*
X8153000Y-6971500D02*
X7903000Y-7221500D01*
X7903000Y-10171500D02*
X8153000Y-10421500D01*
X8153000Y-10171500D02*
X7903000Y-10421500D01*
D10*
X5078777Y-10917984D02*
X5078777Y-10717984D01*
X5078777Y-10717984D02*
X5126396Y-10717984D01*
X5126396Y-10717984D02*
X5154967Y-10727508D01*
X5154967Y-10727508D02*
X5174015Y-10746555D01*
X5174015Y-10746555D02*
X5183539Y-10765603D01*
X5183539Y-10765603D02*
X5193063Y-10803698D01*
X5193063Y-10803698D02*
X5193063Y-10832270D01*
X5193063Y-10832270D02*
X5183539Y-10870365D01*
X5183539Y-10870365D02*
X5174015Y-10889412D01*
X5174015Y-10889412D02*
X5154967Y-10908460D01*
X5154967Y-10908460D02*
X5126396Y-10917984D01*
X5126396Y-10917984D02*
X5078777Y-10917984D01*
X5278777Y-10917984D02*
X5278777Y-10784650D01*
X5278777Y-10822746D02*
X5288301Y-10803698D01*
X5288301Y-10803698D02*
X5297824Y-10794174D01*
X5297824Y-10794174D02*
X5316872Y-10784650D01*
X5316872Y-10784650D02*
X5335920Y-10784650D01*
X5402586Y-10917984D02*
X5402586Y-10784650D01*
X5402586Y-10717984D02*
X5393063Y-10727508D01*
X5393063Y-10727508D02*
X5402586Y-10737031D01*
X5402586Y-10737031D02*
X5412110Y-10727508D01*
X5412110Y-10727508D02*
X5402586Y-10717984D01*
X5402586Y-10717984D02*
X5402586Y-10737031D01*
X5526396Y-10917984D02*
X5507348Y-10908460D01*
X5507348Y-10908460D02*
X5497824Y-10889412D01*
X5497824Y-10889412D02*
X5497824Y-10717984D01*
X5631158Y-10917984D02*
X5612110Y-10908460D01*
X5612110Y-10908460D02*
X5602586Y-10889412D01*
X5602586Y-10889412D02*
X5602586Y-10717984D01*
X5859729Y-10917984D02*
X5859729Y-10717984D01*
X5859729Y-10717984D02*
X5926396Y-10860841D01*
X5926396Y-10860841D02*
X5993062Y-10717984D01*
X5993062Y-10717984D02*
X5993062Y-10917984D01*
X6174015Y-10917984D02*
X6174015Y-10813222D01*
X6174015Y-10813222D02*
X6164491Y-10794174D01*
X6164491Y-10794174D02*
X6145443Y-10784650D01*
X6145443Y-10784650D02*
X6107348Y-10784650D01*
X6107348Y-10784650D02*
X6088301Y-10794174D01*
X6174015Y-10908460D02*
X6154967Y-10917984D01*
X6154967Y-10917984D02*
X6107348Y-10917984D01*
X6107348Y-10917984D02*
X6088301Y-10908460D01*
X6088301Y-10908460D02*
X6078777Y-10889412D01*
X6078777Y-10889412D02*
X6078777Y-10870365D01*
X6078777Y-10870365D02*
X6088301Y-10851317D01*
X6088301Y-10851317D02*
X6107348Y-10841793D01*
X6107348Y-10841793D02*
X6154967Y-10841793D01*
X6154967Y-10841793D02*
X6174015Y-10832270D01*
X6269253Y-10784650D02*
X6269253Y-10984650D01*
X6269253Y-10794174D02*
X6288301Y-10784650D01*
X6288301Y-10784650D02*
X6326396Y-10784650D01*
X6326396Y-10784650D02*
X6345443Y-10794174D01*
X6345443Y-10794174D02*
X6354967Y-10803698D01*
X6354967Y-10803698D02*
X6364491Y-10822746D01*
X6364491Y-10822746D02*
X6364491Y-10879889D01*
X6364491Y-10879889D02*
X6354967Y-10898936D01*
X6354967Y-10898936D02*
X6345443Y-10908460D01*
X6345443Y-10908460D02*
X6326396Y-10917984D01*
X6326396Y-10917984D02*
X6288301Y-10917984D01*
X6288301Y-10917984D02*
X6269253Y-10908460D01*
X6450205Y-10898936D02*
X6459729Y-10908460D01*
X6459729Y-10908460D02*
X6450205Y-10917984D01*
X6450205Y-10917984D02*
X6440682Y-10908460D01*
X6440682Y-10908460D02*
X6450205Y-10898936D01*
X6450205Y-10898936D02*
X6450205Y-10917984D01*
X6450205Y-10794174D02*
X6459729Y-10803698D01*
X6459729Y-10803698D02*
X6450205Y-10813222D01*
X6450205Y-10813222D02*
X6440682Y-10803698D01*
X6440682Y-10803698D02*
X6450205Y-10794174D01*
X6450205Y-10794174D02*
X6450205Y-10813222D01*
X4618000Y-11146500D02*
X4818000Y-11346500D01*
X4818000Y-11146500D02*
X4618000Y-11346500D01*
X5069253Y-11157031D02*
X5078777Y-11147508D01*
X5078777Y-11147508D02*
X5097824Y-11137984D01*
X5097824Y-11137984D02*
X5145444Y-11137984D01*
X5145444Y-11137984D02*
X5164491Y-11147508D01*
X5164491Y-11147508D02*
X5174015Y-11157031D01*
X5174015Y-11157031D02*
X5183539Y-11176079D01*
X5183539Y-11176079D02*
X5183539Y-11195127D01*
X5183539Y-11195127D02*
X5174015Y-11223698D01*
X5174015Y-11223698D02*
X5059729Y-11337984D01*
X5059729Y-11337984D02*
X5183539Y-11337984D01*
X5269253Y-11318936D02*
X5278777Y-11328460D01*
X5278777Y-11328460D02*
X5269253Y-11337984D01*
X5269253Y-11337984D02*
X5259729Y-11328460D01*
X5259729Y-11328460D02*
X5269253Y-11318936D01*
X5269253Y-11318936D02*
X5269253Y-11337984D01*
X5459729Y-11137984D02*
X5364491Y-11137984D01*
X5364491Y-11137984D02*
X5354967Y-11233222D01*
X5354967Y-11233222D02*
X5364491Y-11223698D01*
X5364491Y-11223698D02*
X5383539Y-11214174D01*
X5383539Y-11214174D02*
X5431158Y-11214174D01*
X5431158Y-11214174D02*
X5450205Y-11223698D01*
X5450205Y-11223698D02*
X5459729Y-11233222D01*
X5459729Y-11233222D02*
X5469253Y-11252269D01*
X5469253Y-11252269D02*
X5469253Y-11299888D01*
X5469253Y-11299888D02*
X5459729Y-11318936D01*
X5459729Y-11318936D02*
X5450205Y-11328460D01*
X5450205Y-11328460D02*
X5431158Y-11337984D01*
X5431158Y-11337984D02*
X5383539Y-11337984D01*
X5383539Y-11337984D02*
X5364491Y-11328460D01*
X5364491Y-11328460D02*
X5354967Y-11318936D01*
X5593062Y-11137984D02*
X5612110Y-11137984D01*
X5612110Y-11137984D02*
X5631158Y-11147508D01*
X5631158Y-11147508D02*
X5640682Y-11157031D01*
X5640682Y-11157031D02*
X5650205Y-11176079D01*
X5650205Y-11176079D02*
X5659729Y-11214174D01*
X5659729Y-11214174D02*
X5659729Y-11261793D01*
X5659729Y-11261793D02*
X5650205Y-11299888D01*
X5650205Y-11299888D02*
X5640682Y-11318936D01*
X5640682Y-11318936D02*
X5631158Y-11328460D01*
X5631158Y-11328460D02*
X5612110Y-11337984D01*
X5612110Y-11337984D02*
X5593062Y-11337984D01*
X5593062Y-11337984D02*
X5574015Y-11328460D01*
X5574015Y-11328460D02*
X5564491Y-11318936D01*
X5564491Y-11318936D02*
X5554967Y-11299888D01*
X5554967Y-11299888D02*
X5545444Y-11261793D01*
X5545444Y-11261793D02*
X5545444Y-11214174D01*
X5545444Y-11214174D02*
X5554967Y-11176079D01*
X5554967Y-11176079D02*
X5564491Y-11157031D01*
X5564491Y-11157031D02*
X5574015Y-11147508D01*
X5574015Y-11147508D02*
X5593062Y-11137984D01*
X5783539Y-11137984D02*
X5802586Y-11137984D01*
X5802586Y-11137984D02*
X5821634Y-11147508D01*
X5821634Y-11147508D02*
X5831158Y-11157031D01*
X5831158Y-11157031D02*
X5840682Y-11176079D01*
X5840682Y-11176079D02*
X5850205Y-11214174D01*
X5850205Y-11214174D02*
X5850205Y-11261793D01*
X5850205Y-11261793D02*
X5840682Y-11299888D01*
X5840682Y-11299888D02*
X5831158Y-11318936D01*
X5831158Y-11318936D02*
X5821634Y-11328460D01*
X5821634Y-11328460D02*
X5802586Y-11337984D01*
X5802586Y-11337984D02*
X5783539Y-11337984D01*
X5783539Y-11337984D02*
X5764491Y-11328460D01*
X5764491Y-11328460D02*
X5754967Y-11318936D01*
X5754967Y-11318936D02*
X5745443Y-11299888D01*
X5745443Y-11299888D02*
X5735920Y-11261793D01*
X5735920Y-11261793D02*
X5735920Y-11214174D01*
X5735920Y-11214174D02*
X5745443Y-11176079D01*
X5745443Y-11176079D02*
X5754967Y-11157031D01*
X5754967Y-11157031D02*
X5764491Y-11147508D01*
X5764491Y-11147508D02*
X5783539Y-11137984D01*
X5935920Y-11337984D02*
X5935920Y-11204650D01*
X5935920Y-11223698D02*
X5945443Y-11214174D01*
X5945443Y-11214174D02*
X5964491Y-11204650D01*
X5964491Y-11204650D02*
X5993063Y-11204650D01*
X5993063Y-11204650D02*
X6012110Y-11214174D01*
X6012110Y-11214174D02*
X6021634Y-11233222D01*
X6021634Y-11233222D02*
X6021634Y-11337984D01*
X6021634Y-11233222D02*
X6031158Y-11214174D01*
X6031158Y-11214174D02*
X6050205Y-11204650D01*
X6050205Y-11204650D02*
X6078777Y-11204650D01*
X6078777Y-11204650D02*
X6097824Y-11214174D01*
X6097824Y-11214174D02*
X6107348Y-11233222D01*
X6107348Y-11233222D02*
X6107348Y-11337984D01*
X6202586Y-11337984D02*
X6202586Y-11204650D01*
X6202586Y-11223698D02*
X6212110Y-11214174D01*
X6212110Y-11214174D02*
X6231158Y-11204650D01*
X6231158Y-11204650D02*
X6259729Y-11204650D01*
X6259729Y-11204650D02*
X6278777Y-11214174D01*
X6278777Y-11214174D02*
X6288301Y-11233222D01*
X6288301Y-11233222D02*
X6288301Y-11337984D01*
X6288301Y-11233222D02*
X6297824Y-11214174D01*
X6297824Y-11214174D02*
X6316872Y-11204650D01*
X6316872Y-11204650D02*
X6345443Y-11204650D01*
X6345443Y-11204650D02*
X6364491Y-11214174D01*
X6364491Y-11214174D02*
X6374015Y-11233222D01*
X6374015Y-11233222D02*
X6374015Y-11337984D01*
X6764491Y-11128460D02*
X6593063Y-11385603D01*
X7021634Y-11137984D02*
X7040682Y-11137984D01*
X7040682Y-11137984D02*
X7059729Y-11147508D01*
X7059729Y-11147508D02*
X7069253Y-11157031D01*
X7069253Y-11157031D02*
X7078777Y-11176079D01*
X7078777Y-11176079D02*
X7088301Y-11214174D01*
X7088301Y-11214174D02*
X7088301Y-11261793D01*
X7088301Y-11261793D02*
X7078777Y-11299888D01*
X7078777Y-11299888D02*
X7069253Y-11318936D01*
X7069253Y-11318936D02*
X7059729Y-11328460D01*
X7059729Y-11328460D02*
X7040682Y-11337984D01*
X7040682Y-11337984D02*
X7021634Y-11337984D01*
X7021634Y-11337984D02*
X7002586Y-11328460D01*
X7002586Y-11328460D02*
X6993063Y-11318936D01*
X6993063Y-11318936D02*
X6983539Y-11299888D01*
X6983539Y-11299888D02*
X6974015Y-11261793D01*
X6974015Y-11261793D02*
X6974015Y-11214174D01*
X6974015Y-11214174D02*
X6983539Y-11176079D01*
X6983539Y-11176079D02*
X6993063Y-11157031D01*
X6993063Y-11157031D02*
X7002586Y-11147508D01*
X7002586Y-11147508D02*
X7021634Y-11137984D01*
X7174015Y-11318936D02*
X7183539Y-11328460D01*
X7183539Y-11328460D02*
X7174015Y-11337984D01*
X7174015Y-11337984D02*
X7164491Y-11328460D01*
X7164491Y-11328460D02*
X7174015Y-11318936D01*
X7174015Y-11318936D02*
X7174015Y-11337984D01*
X7307348Y-11137984D02*
X7326396Y-11137984D01*
X7326396Y-11137984D02*
X7345444Y-11147508D01*
X7345444Y-11147508D02*
X7354967Y-11157031D01*
X7354967Y-11157031D02*
X7364491Y-11176079D01*
X7364491Y-11176079D02*
X7374015Y-11214174D01*
X7374015Y-11214174D02*
X7374015Y-11261793D01*
X7374015Y-11261793D02*
X7364491Y-11299888D01*
X7364491Y-11299888D02*
X7354967Y-11318936D01*
X7354967Y-11318936D02*
X7345444Y-11328460D01*
X7345444Y-11328460D02*
X7326396Y-11337984D01*
X7326396Y-11337984D02*
X7307348Y-11337984D01*
X7307348Y-11337984D02*
X7288301Y-11328460D01*
X7288301Y-11328460D02*
X7278777Y-11318936D01*
X7278777Y-11318936D02*
X7269253Y-11299888D01*
X7269253Y-11299888D02*
X7259729Y-11261793D01*
X7259729Y-11261793D02*
X7259729Y-11214174D01*
X7259729Y-11214174D02*
X7269253Y-11176079D01*
X7269253Y-11176079D02*
X7278777Y-11157031D01*
X7278777Y-11157031D02*
X7288301Y-11147508D01*
X7288301Y-11147508D02*
X7307348Y-11137984D01*
X7469253Y-11337984D02*
X7507348Y-11337984D01*
X7507348Y-11337984D02*
X7526396Y-11328460D01*
X7526396Y-11328460D02*
X7535920Y-11318936D01*
X7535920Y-11318936D02*
X7554967Y-11290365D01*
X7554967Y-11290365D02*
X7564491Y-11252269D01*
X7564491Y-11252269D02*
X7564491Y-11176079D01*
X7564491Y-11176079D02*
X7554967Y-11157031D01*
X7554967Y-11157031D02*
X7545444Y-11147508D01*
X7545444Y-11147508D02*
X7526396Y-11137984D01*
X7526396Y-11137984D02*
X7488301Y-11137984D01*
X7488301Y-11137984D02*
X7469253Y-11147508D01*
X7469253Y-11147508D02*
X7459729Y-11157031D01*
X7459729Y-11157031D02*
X7450206Y-11176079D01*
X7450206Y-11176079D02*
X7450206Y-11223698D01*
X7450206Y-11223698D02*
X7459729Y-11242746D01*
X7459729Y-11242746D02*
X7469253Y-11252269D01*
X7469253Y-11252269D02*
X7488301Y-11261793D01*
X7488301Y-11261793D02*
X7526396Y-11261793D01*
X7526396Y-11261793D02*
X7545444Y-11252269D01*
X7545444Y-11252269D02*
X7554967Y-11242746D01*
X7554967Y-11242746D02*
X7564491Y-11223698D01*
X7678777Y-11223698D02*
X7659729Y-11214174D01*
X7659729Y-11214174D02*
X7650206Y-11204650D01*
X7650206Y-11204650D02*
X7640682Y-11185603D01*
X7640682Y-11185603D02*
X7640682Y-11176079D01*
X7640682Y-11176079D02*
X7650206Y-11157031D01*
X7650206Y-11157031D02*
X7659729Y-11147508D01*
X7659729Y-11147508D02*
X7678777Y-11137984D01*
X7678777Y-11137984D02*
X7716872Y-11137984D01*
X7716872Y-11137984D02*
X7735920Y-11147508D01*
X7735920Y-11147508D02*
X7745444Y-11157031D01*
X7745444Y-11157031D02*
X7754967Y-11176079D01*
X7754967Y-11176079D02*
X7754967Y-11185603D01*
X7754967Y-11185603D02*
X7745444Y-11204650D01*
X7745444Y-11204650D02*
X7735920Y-11214174D01*
X7735920Y-11214174D02*
X7716872Y-11223698D01*
X7716872Y-11223698D02*
X7678777Y-11223698D01*
X7678777Y-11223698D02*
X7659729Y-11233222D01*
X7659729Y-11233222D02*
X7650206Y-11242746D01*
X7650206Y-11242746D02*
X7640682Y-11261793D01*
X7640682Y-11261793D02*
X7640682Y-11299888D01*
X7640682Y-11299888D02*
X7650206Y-11318936D01*
X7650206Y-11318936D02*
X7659729Y-11328460D01*
X7659729Y-11328460D02*
X7678777Y-11337984D01*
X7678777Y-11337984D02*
X7716872Y-11337984D01*
X7716872Y-11337984D02*
X7735920Y-11328460D01*
X7735920Y-11328460D02*
X7745444Y-11318936D01*
X7745444Y-11318936D02*
X7754967Y-11299888D01*
X7754967Y-11299888D02*
X7754967Y-11261793D01*
X7754967Y-11261793D02*
X7745444Y-11242746D01*
X7745444Y-11242746D02*
X7735920Y-11233222D01*
X7735920Y-11233222D02*
X7716872Y-11223698D01*
X7926396Y-11204650D02*
X7926396Y-11337984D01*
X7878777Y-11128460D02*
X7831158Y-11271317D01*
X7831158Y-11271317D02*
X7954967Y-11271317D01*
X8021634Y-11137984D02*
X8021634Y-11176079D01*
X8097825Y-11137984D02*
X8097825Y-11176079D01*
X8393063Y-11414174D02*
X8383539Y-11404650D01*
X8383539Y-11404650D02*
X8364491Y-11376079D01*
X8364491Y-11376079D02*
X8354968Y-11357031D01*
X8354968Y-11357031D02*
X8345444Y-11328460D01*
X8345444Y-11328460D02*
X8335920Y-11280841D01*
X8335920Y-11280841D02*
X8335920Y-11242746D01*
X8335920Y-11242746D02*
X8345444Y-11195127D01*
X8345444Y-11195127D02*
X8354968Y-11166555D01*
X8354968Y-11166555D02*
X8364491Y-11147508D01*
X8364491Y-11147508D02*
X8383539Y-11118936D01*
X8383539Y-11118936D02*
X8393063Y-11109412D01*
X8554968Y-11204650D02*
X8554968Y-11337984D01*
X8507349Y-11128460D02*
X8459730Y-11271317D01*
X8459730Y-11271317D02*
X8583539Y-11271317D01*
X8812111Y-11337984D02*
X8812111Y-11137984D01*
X8897825Y-11337984D02*
X8897825Y-11233222D01*
X8897825Y-11233222D02*
X8888301Y-11214174D01*
X8888301Y-11214174D02*
X8869253Y-11204650D01*
X8869253Y-11204650D02*
X8840682Y-11204650D01*
X8840682Y-11204650D02*
X8821634Y-11214174D01*
X8821634Y-11214174D02*
X8812111Y-11223698D01*
X9021634Y-11337984D02*
X9002587Y-11328460D01*
X9002587Y-11328460D02*
X8993063Y-11318936D01*
X8993063Y-11318936D02*
X8983539Y-11299888D01*
X8983539Y-11299888D02*
X8983539Y-11242746D01*
X8983539Y-11242746D02*
X8993063Y-11223698D01*
X8993063Y-11223698D02*
X9002587Y-11214174D01*
X9002587Y-11214174D02*
X9021634Y-11204650D01*
X9021634Y-11204650D02*
X9050206Y-11204650D01*
X9050206Y-11204650D02*
X9069253Y-11214174D01*
X9069253Y-11214174D02*
X9078777Y-11223698D01*
X9078777Y-11223698D02*
X9088301Y-11242746D01*
X9088301Y-11242746D02*
X9088301Y-11299888D01*
X9088301Y-11299888D02*
X9078777Y-11318936D01*
X9078777Y-11318936D02*
X9069253Y-11328460D01*
X9069253Y-11328460D02*
X9050206Y-11337984D01*
X9050206Y-11337984D02*
X9021634Y-11337984D01*
X9202587Y-11337984D02*
X9183539Y-11328460D01*
X9183539Y-11328460D02*
X9174015Y-11309412D01*
X9174015Y-11309412D02*
X9174015Y-11137984D01*
X9354968Y-11328460D02*
X9335920Y-11337984D01*
X9335920Y-11337984D02*
X9297825Y-11337984D01*
X9297825Y-11337984D02*
X9278777Y-11328460D01*
X9278777Y-11328460D02*
X9269253Y-11309412D01*
X9269253Y-11309412D02*
X9269253Y-11233222D01*
X9269253Y-11233222D02*
X9278777Y-11214174D01*
X9278777Y-11214174D02*
X9297825Y-11204650D01*
X9297825Y-11204650D02*
X9335920Y-11204650D01*
X9335920Y-11204650D02*
X9354968Y-11214174D01*
X9354968Y-11214174D02*
X9364492Y-11233222D01*
X9364492Y-11233222D02*
X9364492Y-11252269D01*
X9364492Y-11252269D02*
X9269253Y-11271317D01*
X9440682Y-11328460D02*
X9459730Y-11337984D01*
X9459730Y-11337984D02*
X9497825Y-11337984D01*
X9497825Y-11337984D02*
X9516873Y-11328460D01*
X9516873Y-11328460D02*
X9526396Y-11309412D01*
X9526396Y-11309412D02*
X9526396Y-11299888D01*
X9526396Y-11299888D02*
X9516873Y-11280841D01*
X9516873Y-11280841D02*
X9497825Y-11271317D01*
X9497825Y-11271317D02*
X9469253Y-11271317D01*
X9469253Y-11271317D02*
X9450206Y-11261793D01*
X9450206Y-11261793D02*
X9440682Y-11242746D01*
X9440682Y-11242746D02*
X9440682Y-11233222D01*
X9440682Y-11233222D02*
X9450206Y-11214174D01*
X9450206Y-11214174D02*
X9469253Y-11204650D01*
X9469253Y-11204650D02*
X9497825Y-11204650D01*
X9497825Y-11204650D02*
X9516873Y-11214174D01*
X9593063Y-11414174D02*
X9602587Y-11404650D01*
X9602587Y-11404650D02*
X9621634Y-11376079D01*
X9621634Y-11376079D02*
X9631158Y-11357031D01*
X9631158Y-11357031D02*
X9640682Y-11328460D01*
X9640682Y-11328460D02*
X9650206Y-11280841D01*
X9650206Y-11280841D02*
X9650206Y-11242746D01*
X9650206Y-11242746D02*
X9640682Y-11195127D01*
X9640682Y-11195127D02*
X9631158Y-11166555D01*
X9631158Y-11166555D02*
X9621634Y-11147508D01*
X9621634Y-11147508D02*
X9602587Y-11118936D01*
X9602587Y-11118936D02*
X9593063Y-11109412D01*
X9954968Y-11414174D02*
X9945444Y-11404650D01*
X9945444Y-11404650D02*
X9926396Y-11376079D01*
X9926396Y-11376079D02*
X9916873Y-11357031D01*
X9916873Y-11357031D02*
X9907349Y-11328460D01*
X9907349Y-11328460D02*
X9897825Y-11280841D01*
X9897825Y-11280841D02*
X9897825Y-11242746D01*
X9897825Y-11242746D02*
X9907349Y-11195127D01*
X9907349Y-11195127D02*
X9916873Y-11166555D01*
X9916873Y-11166555D02*
X9926396Y-11147508D01*
X9926396Y-11147508D02*
X9945444Y-11118936D01*
X9945444Y-11118936D02*
X9954968Y-11109412D01*
X10031158Y-11204650D02*
X10031158Y-11337984D01*
X10031158Y-11223698D02*
X10040682Y-11214174D01*
X10040682Y-11214174D02*
X10059730Y-11204650D01*
X10059730Y-11204650D02*
X10088301Y-11204650D01*
X10088301Y-11204650D02*
X10107349Y-11214174D01*
X10107349Y-11214174D02*
X10116873Y-11233222D01*
X10116873Y-11233222D02*
X10116873Y-11337984D01*
X10240682Y-11337984D02*
X10221634Y-11328460D01*
X10221634Y-11328460D02*
X10212111Y-11318936D01*
X10212111Y-11318936D02*
X10202587Y-11299888D01*
X10202587Y-11299888D02*
X10202587Y-11242746D01*
X10202587Y-11242746D02*
X10212111Y-11223698D01*
X10212111Y-11223698D02*
X10221634Y-11214174D01*
X10221634Y-11214174D02*
X10240682Y-11204650D01*
X10240682Y-11204650D02*
X10269254Y-11204650D01*
X10269254Y-11204650D02*
X10288301Y-11214174D01*
X10288301Y-11214174D02*
X10297825Y-11223698D01*
X10297825Y-11223698D02*
X10307349Y-11242746D01*
X10307349Y-11242746D02*
X10307349Y-11299888D01*
X10307349Y-11299888D02*
X10297825Y-11318936D01*
X10297825Y-11318936D02*
X10288301Y-11328460D01*
X10288301Y-11328460D02*
X10269254Y-11337984D01*
X10269254Y-11337984D02*
X10240682Y-11337984D01*
X10364492Y-11204650D02*
X10440682Y-11204650D01*
X10393063Y-11137984D02*
X10393063Y-11309412D01*
X10393063Y-11309412D02*
X10402587Y-11328460D01*
X10402587Y-11328460D02*
X10421634Y-11337984D01*
X10421634Y-11337984D02*
X10440682Y-11337984D01*
X10659730Y-11204650D02*
X10659730Y-11404650D01*
X10659730Y-11214174D02*
X10678777Y-11204650D01*
X10678777Y-11204650D02*
X10716873Y-11204650D01*
X10716873Y-11204650D02*
X10735920Y-11214174D01*
X10735920Y-11214174D02*
X10745444Y-11223698D01*
X10745444Y-11223698D02*
X10754968Y-11242746D01*
X10754968Y-11242746D02*
X10754968Y-11299888D01*
X10754968Y-11299888D02*
X10745444Y-11318936D01*
X10745444Y-11318936D02*
X10735920Y-11328460D01*
X10735920Y-11328460D02*
X10716873Y-11337984D01*
X10716873Y-11337984D02*
X10678777Y-11337984D01*
X10678777Y-11337984D02*
X10659730Y-11328460D01*
X10869254Y-11337984D02*
X10850206Y-11328460D01*
X10850206Y-11328460D02*
X10840682Y-11309412D01*
X10840682Y-11309412D02*
X10840682Y-11137984D01*
X11031158Y-11337984D02*
X11031158Y-11233222D01*
X11031158Y-11233222D02*
X11021635Y-11214174D01*
X11021635Y-11214174D02*
X11002587Y-11204650D01*
X11002587Y-11204650D02*
X10964492Y-11204650D01*
X10964492Y-11204650D02*
X10945444Y-11214174D01*
X11031158Y-11328460D02*
X11012111Y-11337984D01*
X11012111Y-11337984D02*
X10964492Y-11337984D01*
X10964492Y-11337984D02*
X10945444Y-11328460D01*
X10945444Y-11328460D02*
X10935920Y-11309412D01*
X10935920Y-11309412D02*
X10935920Y-11290365D01*
X10935920Y-11290365D02*
X10945444Y-11271317D01*
X10945444Y-11271317D02*
X10964492Y-11261793D01*
X10964492Y-11261793D02*
X11012111Y-11261793D01*
X11012111Y-11261793D02*
X11031158Y-11252269D01*
X11097825Y-11204650D02*
X11174015Y-11204650D01*
X11126396Y-11137984D02*
X11126396Y-11309412D01*
X11126396Y-11309412D02*
X11135920Y-11328460D01*
X11135920Y-11328460D02*
X11154968Y-11337984D01*
X11154968Y-11337984D02*
X11174015Y-11337984D01*
X11316873Y-11328460D02*
X11297825Y-11337984D01*
X11297825Y-11337984D02*
X11259730Y-11337984D01*
X11259730Y-11337984D02*
X11240682Y-11328460D01*
X11240682Y-11328460D02*
X11231158Y-11309412D01*
X11231158Y-11309412D02*
X11231158Y-11233222D01*
X11231158Y-11233222D02*
X11240682Y-11214174D01*
X11240682Y-11214174D02*
X11259730Y-11204650D01*
X11259730Y-11204650D02*
X11297825Y-11204650D01*
X11297825Y-11204650D02*
X11316873Y-11214174D01*
X11316873Y-11214174D02*
X11326396Y-11233222D01*
X11326396Y-11233222D02*
X11326396Y-11252269D01*
X11326396Y-11252269D02*
X11231158Y-11271317D01*
X11497825Y-11337984D02*
X11497825Y-11137984D01*
X11497825Y-11328460D02*
X11478777Y-11337984D01*
X11478777Y-11337984D02*
X11440682Y-11337984D01*
X11440682Y-11337984D02*
X11421634Y-11328460D01*
X11421634Y-11328460D02*
X11412111Y-11318936D01*
X11412111Y-11318936D02*
X11402587Y-11299888D01*
X11402587Y-11299888D02*
X11402587Y-11242746D01*
X11402587Y-11242746D02*
X11412111Y-11223698D01*
X11412111Y-11223698D02*
X11421634Y-11214174D01*
X11421634Y-11214174D02*
X11440682Y-11204650D01*
X11440682Y-11204650D02*
X11478777Y-11204650D01*
X11478777Y-11204650D02*
X11497825Y-11214174D01*
X11574015Y-11414174D02*
X11583539Y-11404650D01*
X11583539Y-11404650D02*
X11602587Y-11376079D01*
X11602587Y-11376079D02*
X11612111Y-11357031D01*
X11612111Y-11357031D02*
X11621634Y-11328460D01*
X11621634Y-11328460D02*
X11631158Y-11280841D01*
X11631158Y-11280841D02*
X11631158Y-11242746D01*
X11631158Y-11242746D02*
X11621634Y-11195127D01*
X11621634Y-11195127D02*
X11612111Y-11166555D01*
X11612111Y-11166555D02*
X11602587Y-11147508D01*
X11602587Y-11147508D02*
X11583539Y-11118936D01*
X11583539Y-11118936D02*
X11574015Y-11109412D01*
M02*
